<?xml version="1.0" encoding="utf-8"?>
<!-- Generator: Adobe Illustrator 17.0.0, SVG Export Plug-In . SVG Version: 6.00 Build 0)  -->
<!DOCTYPE svg PUBLIC "-//W3C//DTD SVG 1.1//EN" "http://www.w3.org/Graphics/SVG/1.1/DTD/svg11.dtd">
<svg version="1.1" id="Layer_1" xmlns="http://www.w3.org/2000/svg" xmlns:xlink="http://www.w3.org/1999/xlink" x="0px" y="0px"
	 width="414px" height="265.762px" viewBox="0 0 414 265.762" enable-background="new 0 0 414 265.762" xml:space="preserve">
<g>
	<g>
		<path fill="#FFFFFF" stroke="#4F4F4F" stroke-width="0.2" stroke-miterlimit="10" d="M-270.885,35.397h-13.248l51.75,27.324
			l52.578-26.496l1.242-21.528c-2.484,1.242-4.968,2.898-7.452,4.14C-208.785,30.429-239.421,36.639-270.885,35.397z"/>
		
			<rect x="-166.143" y="-113.643" fill="#FFFFFF" stroke="#4F4F4F" stroke-width="0.2" stroke-miterlimit="10" width="0" height="6.21"/>
		<path fill="#FFFFFF" stroke="#4F4F4F" stroke-width="0.2" stroke-miterlimit="10" d="M-279.579-110.745l-144.072,72.45
			l41.4,21.942l119.232-60.03C-270.885-87.975-277.509-100.395-279.579-110.745z"/>
		<path fill="#FFFFFF" stroke="#4F4F4F" stroke-width="0.2" stroke-miterlimit="10" d="M-192.639-66.861
			c-13.662,17.802-27.738,32.706-28.98,33.534l-2.898,2.898l-2.898-2.898c-1.242-1.242-13.662-14.076-26.496-30.636l-111.78,55.89
			l57.546,30.636h38.502c24.426,0.828,48.852-3.726,66.654-12.834c14.904-7.452,24.012-17.388,26.082-27.738l0.414-6.21
			l0.828-12.834C-173.595-47.403-179.805-58.167-192.639-66.861z"/>
		<path fill="#FFFFFF" stroke="#4F4F4F" stroke-width="0.2" stroke-miterlimit="10" d="M-151.239-36.225h58.788l1.656-33.948
			l-72.45-38.502l-7.452,3.726c-2.484,7.866-7.038,16.56-12.42,24.84l2.898,1.656l0,0
			C-159.105-67.689-148.755-52.371-151.239-36.225z"/>
		<polygon fill="#FFFFFF" stroke="#4F4F4F" stroke-width="0.2" stroke-miterlimit="10" points="-66.783,-57.753 -68.025,-36.225 
			-34.491,-36.225 -30.351,-38.295 		"/>
		<path fill="#FFFFFF" stroke="#4F4F4F" stroke-width="0.2" stroke-miterlimit="10" d="M-93.279-23.805h-58.788
			c0,2.07,0,4.554-0.414,6.624l-2.07,40.986l94.806-47.61h-9.108H-93.279z"/>
	</g>
	<g id="XMLID_1_">
		<g>
			<polygon fill="#FFFFFF" points="-232.379,72.244 -232.379,72.654 -423.65,-28.776 -423.65,-38.706 -232.379,63.134 			"/>
			<polygon fill="#FFFFFF" points="-30.349,-38.296 -30.349,-29.186 -232.379,72.244 -232.379,63.134 -232.379,62.724 			"/>
		</g>
		<g>
			<polyline fill="none" stroke="#4F4F4F" stroke-width="0.2" stroke-miterlimit="10" points="-232.379,72.244 -30.349,-29.186 
				-30.349,-38.296 -232.379,62.724 -232.379,63.134 			"/>
			<polygon fill="none" stroke="#4F4F4F" stroke-width="0.2" stroke-miterlimit="10" points="-232.379,63.134 -423.65,-38.706 
				-423.65,-28.776 -232.379,72.654 -232.379,72.244 			"/>
		</g>
	</g>
	<g>
		<path fill="#70C59B" d="M-224.517-169.533c-28.566,0-51.75,23.598-51.75,52.164s52.164,81.558,52.164,81.558
			s52.164-52.578,52.164-81.558C-172.353-145.935-195.537-169.533-224.517-169.533z M-224.517-102.879
			c-12.42,0-22.77-9.936-22.77-22.77s9.936-22.77,22.77-22.77c12.42,0,22.77,9.936,22.77,22.77S-212.097-102.879-224.517-102.879z"
			/>
	</g>
</g>
<g>
	<text transform="matrix(1 0 0 1 570.4011 198.6265)" fill="#70C59B" font-family="'DINCondensed-Bold'" font-size="57.6818">EVACU</text>
</g>
<g>
	
		<text transform="matrix(1 0 0 1 684.6849 198.5294)" fill="none" stroke="#70C59B" stroke-width="0.25" stroke-miterlimit="10" font-family="'DINCondensed-Bold'" font-size="55.8793">ME</text>
</g>
<g>
	<path fill="#E35337" d="M284.723,55.843c-20.759-20.759-48.363-32.191-77.722-32.191s-56.963,11.432-77.722,32.191
		c-42.856,42.856-42.856,112.59,0,155.446c20.759,20.759,48.363,32.191,77.722,32.191s56.963-11.432,77.722-32.191
		C327.576,168.432,327.576,98.699,284.723,55.843z M281.644,208.21c-19.941,19.936-46.447,30.92-74.643,30.92
		c-28.193,0-54.704-10.984-74.643-30.92c-41.157-41.166-41.157-108.135,0-149.292c19.936-19.933,46.447-30.914,74.64-30.914
		c28.196,0,54.704,10.984,74.643,30.917C322.801,100.078,322.801,167.047,281.644,208.21z"/>
	<path fill="#E35337" d="M145.062,89.27l-14.159-10.132c-0.372,0.518-0.735,1.043-1.095,1.567l14.356,9.851
		C144.458,90.125,144.757,89.694,145.062,89.27z"/>
	<path fill="#E35337" d="M165.264,69.858l-9.561-14.555c-0.539,0.357-1.072,0.712-1.602,1.075l9.865,14.353
		C164.397,70.433,164.827,70.145,165.264,69.858z"/>
	<path fill="#E35337" d="M136.125,105.708l-16.204-6.374c-0.237,0.6-0.466,1.198-0.685,1.804l16.336,6.025
		C135.753,106.675,135.937,106.194,136.125,105.708z"/>
	<path fill="#E35337" d="M150.987,81.994l-12.812-11.793c-0.434,0.475-0.861,0.943-1.283,1.424l13.043,11.538
		C150.281,82.77,150.63,82.38,150.987,81.994z"/>
	<path fill="#E35337" d="M157.759,75.482l-11.286-13.26c-0.489,0.413-0.972,0.838-1.453,1.262l11.55,13.029
		C156.969,76.162,157.364,75.819,157.759,75.482z"/>
	<path fill="#E35337" d="M140.082,97.211l-15.296-8.316c-0.305,0.562-0.606,1.131-0.899,1.693l15.466,8.005
		C139.587,98.127,139.836,97.668,140.082,97.211z"/>
	<path fill="#E35337" d="M131.397,142.562l-17.291,2.053c0.073,0.639,0.155,1.268,0.243,1.898l17.25-2.39
		C131.523,143.608,131.459,143.09,131.397,142.562z"/>
	<path fill="#E35337" d="M133.067,151.801l-16.907,4.162c0.149,0.618,0.308,1.239,0.475,1.857l16.825-4.496
		C133.322,152.814,133.193,152.305,133.067,151.801z"/>
	<path fill="#E35337" d="M133.251,114.624l-16.872-4.315c-0.155,0.618-0.308,1.242-0.457,1.866l16.957,3.966
		C133,115.635,133.12,115.131,133.251,114.624z"/>
	<path fill="#E35337" d="M135.858,160.752l-16.268,6.21c0.228,0.595,0.463,1.192,0.703,1.787l16.14-6.538
		C136.236,161.731,136.046,161.238,135.858,160.752z"/>
	<path fill="#E35337" d="M131.491,123.833l-17.273-2.203c-0.079,0.63-0.155,1.268-0.226,1.898l17.314,1.869
		C131.362,124.87,131.421,124.352,131.491,123.833z"/>
	<path fill="#E35337" d="M130.87,133.573v-0.387l-17.414-0.059v0.442c0,0.486,0.003,0.975,0.009,1.462l17.414-0.269
		C130.873,134.372,130.87,133.974,130.87,133.573z"/>
	<path fill="#E35337" d="M221.831,41.15c-0.633-0.1-1.268-0.193-1.901-0.281l-2.381,17.253c0.516,0.067,1.034,0.144,1.544,0.231
		L221.831,41.15z"/>
	<path fill="#E35337" d="M276.416,102.029l15.85-7.206c-0.264-0.586-0.536-1.166-0.808-1.743l-15.703,7.525
		C275.976,101.083,276.196,101.555,276.416,102.029z"/>
	<path fill="#E35337" d="M266.618,86.077l13.606-10.87c-0.404-0.498-0.808-0.999-1.221-1.491l-13.371,11.151
		C265.962,85.266,266.293,85.673,266.618,86.077z"/>
	<path fill="#E35337" d="M173.407,65.198l-7.695-15.621c-0.574,0.287-1.145,0.574-1.714,0.867l8.005,15.466
		C172.47,65.667,172.938,65.43,173.407,65.198z"/>
	<path fill="#E35337" d="M279.752,110.778l16.629-5.17c-0.19-0.612-0.393-1.224-0.595-1.837l-16.514,5.518
		C279.438,109.791,279.6,110.283,279.752,110.778z"/>
	<path fill="#E35337" d="M283.1,129.208l17.39-0.972c-0.038-0.644-0.079-1.286-0.132-1.93l-17.361,1.353
		C283.035,128.172,283.071,128.69,283.1,129.208z"/>
	<path fill="#E35337" d="M281.996,119.9l17.135-3.111c-0.114-0.63-0.234-1.262-0.36-1.892l-17.068,3.465
		C281.802,118.874,281.905,119.387,281.996,119.9z"/>
	<path fill="#E35337" d="M272.013,93.751l14.839-9.11c-0.337-0.551-0.68-1.093-1.028-1.634l-14.646,9.42
		C271.462,92.873,271.741,93.309,272.013,93.751z"/>
	<path fill="#E35337" d="M139.737,169.299l-15.387,8.152c0.302,0.568,0.609,1.139,0.926,1.699l15.202-8.489
		C140.229,170.21,139.98,169.756,139.737,169.299z"/>
	<path fill="#E35337" d="M210.373,40.043c-0.644-0.026-1.286-0.044-1.927-0.05l-0.255,17.408c0.521,0.012,1.037,0.023,1.555,0.044
		L210.373,40.043z"/>
	<path fill="#E35337" d="M200.37,57.688l-1.514-17.352c-0.639,0.056-1.277,0.12-1.913,0.187l1.872,17.314
		C199.33,57.782,199.851,57.732,200.37,57.688z"/>
	<path fill="#E35337" d="M254.213,52.711c-0.551-0.316-1.101-0.636-1.658-0.943l-8.477,15.208c0.457,0.255,0.914,0.513,1.362,0.776
		L254.213,52.711z"/>
	<path fill="#E35337" d="M253.217,72.966l10.577-13.831c-0.51-0.393-1.025-0.773-1.538-1.148l-10.287,14.048
		C252.385,72.342,252.804,72.656,253.217,72.966z"/>
	<path fill="#E35337" d="M260.314,79.117l12.173-12.449c-0.457-0.448-0.914-0.888-1.38-1.324l-11.93,12.686
		C259.561,78.385,259.942,78.748,260.314,79.117z"/>
	<path fill="#E35337" d="M233.073,43.66c-0.615-0.182-1.233-0.351-1.851-0.513l-4.479,16.825c0.504,0.132,1.005,0.269,1.506,0.413
		L233.073,43.66z"/>
	<path fill="#E35337" d="M252.637,194.625l10.439,13.928c0.513-0.381,1.022-0.767,1.529-1.166l-10.726-13.717
		C253.472,193.992,253.056,194.311,252.637,194.625z"/>
	<path fill="#E35337" d="M260.915,187.445c-0.372,0.366-0.744,0.735-1.122,1.098l12.068,12.554c0.46-0.442,0.914-0.893,1.365-1.342
		l0.064-0.062l-12.311-12.311L260.915,187.445z"/>
	<path fill="#E35337" d="M244.801,199.768l8.632,15.123c0.554-0.316,1.11-0.644,1.664-0.975l-8.946-14.941
		C245.704,199.244,245.256,199.508,244.801,199.768z"/>
	<path fill="#E35337" d="M243.929,47.53c-0.589-0.249-1.18-0.498-1.772-0.735L235.63,62.94c0.48,0.193,0.961,0.393,1.441,0.6
		L243.929,47.53z"/>
	<path fill="#E35337" d="M266.211,181.575l13.509,10.981c0.407-0.492,0.803-0.993,1.195-1.497l-13.732-10.709
		C266.867,180.761,266.542,181.168,266.211,181.575z"/>
	<path fill="#E35337" d="M227.537,206.962l4.637,16.787c0.624-0.176,1.245-0.354,1.866-0.545l-5.015-16.67
		C228.53,206.681,228.035,206.825,227.537,206.962z"/>
	<path fill="#E35337" d="M236.386,203.901l6.699,16.072c0.589-0.243,1.178-0.495,1.766-0.756l-7.018-15.934
		C237.353,203.494,236.869,203.702,236.386,203.901z"/>
	<path fill="#E35337" d="M283.147,137.041c-0.023,0.518-0.053,1.04-0.088,1.558l17.379,1.151c0.044-0.644,0.076-1.283,0.105-1.916
		L283.147,137.041z"/>
	<path fill="#E35337" d="M281.873,147.911l17.109,3.257c0.117-0.624,0.231-1.257,0.34-1.886l-17.171-2.909
		C282.063,146.886,281.969,147.398,281.873,147.911z"/>
	<path fill="#E35337" d="M271.665,173.957l14.766,9.233c0.337-0.545,0.671-1.087,0.999-1.637l-14.95-8.934
		C272.215,173.069,271.943,173.514,271.665,173.957z"/>
	<path fill="#E35337" d="M144.643,177.293l-14.265,9.988c0.372,0.53,0.75,1.054,1.134,1.579l14.036-10.308
		C145.24,178.134,144.939,177.715,144.643,177.293z"/>
	<path fill="#E35337" d="M276.137,165.723l15.788,7.343c0.272-0.58,0.536-1.16,0.794-1.749l-15.934-7.018
		C276.571,164.771,276.357,165.248,276.137,165.723z"/>
	<path fill="#E35337" d="M279.553,157l16.579,5.331c0.193-0.606,0.387-1.219,0.568-1.831l-16.681-5
		C279.869,156.001,279.717,156.499,279.553,157z"/>
	<path fill="#E35337" d="M164.898,217.161c0.571,0.296,1.148,0.574,1.725,0.849l7.516-15.7c-0.469-0.226-0.934-0.457-1.397-0.685
		L164.898,217.161z"/>
	<path fill="#E35337" d="M175.492,221.707c0.603,0.22,1.21,0.428,1.816,0.633l5.516-16.523c-0.492-0.161-0.981-0.328-1.473-0.504
		L175.492,221.707z"/>
	<path fill="#E35337" d="M164.652,196.889l-9.698,14.461c0.527,0.357,1.06,0.706,1.596,1.049l9.408-14.654
		C165.525,197.466,165.088,197.179,164.652,196.889z"/>
	<path fill="#E35337" d="M182.051,61.589l-5.691-16.453c-0.609,0.205-1.216,0.425-1.819,0.65l6.04,16.333
		C181.07,61.941,181.562,61.765,182.051,61.589z"/>
	<path fill="#E35337" d="M157.212,191.198l-11.415,13.146c0.483,0.428,0.975,0.838,1.467,1.251l11.139-13.386
		C158,191.874,157.604,191.54,157.212,191.198z"/>
	<path fill="#E35337" d="M150.498,184.622l-12.923,11.67c0.428,0.472,0.861,0.946,1.301,1.409l12.683-11.93
		C151.201,185.389,150.844,185.008,150.498,184.622z"/>
	<path fill="#E35337" d="M197.927,226.728c0.639,0.062,1.283,0.12,1.927,0.164l1.327-17.358c-0.518-0.044-1.031-0.085-1.547-0.138
		L197.927,226.728z"/>
	<path fill="#E35337" d="M191.09,59.073l-3.632-17.033c-0.627,0.138-1.251,0.275-1.878,0.425l3.984,16.951
		C190.071,59.299,190.58,59.188,191.09,59.073z"/>
	<path fill="#E35337" d="M218.36,208.916l2.545,17.226c0.641-0.094,1.277-0.19,1.913-0.305l-2.929-17.162
		C219.38,208.761,218.873,208.84,218.36,208.916z"/>
	<path fill="#E35337" d="M208.993,209.733l0.46,17.405c0.633-0.018,1.268-0.044,1.907-0.067l-0.794-17.393
		C210.042,209.695,209.52,209.713,208.993,209.733z"/>
	<path fill="#E35337" d="M186.562,224.912c0.624,0.138,1.251,0.275,1.88,0.401l3.442-17.071c-0.507-0.105-1.016-0.211-1.526-0.322
		L186.562,224.912z"/>
</g>
<g>
	<g>
		<path fill="#E35337" d="M-275.232,292.264h-13.248l51.75,27.324l52.578-26.496l1.242-21.528c-2.484,1.242-4.968,2.898-7.452,4.14
			C-213.132,287.296-243.768,293.506-275.232,292.264z"/>
		<rect x="-170.49" y="143.224" fill="#E35337" width="0" height="6.21"/>
		<path fill="#E35337" d="M-283.926,146.122l-144.072,72.45l41.4,21.942l119.232-60.03
			C-275.232,168.892-281.856,156.472-283.926,146.122z"/>
		<path fill="#E35337" d="M-196.986,190.006c-13.662,17.802-27.738,32.706-28.98,33.534l-2.898,2.898l-2.898-2.898
			c-1.242-1.242-13.662-14.076-26.496-30.636l-111.78,55.89l57.546,30.636h38.502c24.426,0.828,48.852-3.726,66.654-12.834
			c14.904-7.452,24.012-17.388,26.082-27.738l0.414-6.21l0.828-12.834C-177.942,209.464-184.152,198.7-196.986,190.006z"/>
		<path fill="#E35337" d="M-155.586,220.642h58.788l1.656-33.948l-72.45-38.502l-7.452,3.726c-2.484,7.866-7.038,16.56-12.42,24.84
			l2.898,1.656l0,0C-163.452,189.178-153.102,204.496-155.586,220.642z"/>
		<polygon fill="#E35337" points="-71.13,199.114 -72.372,220.642 -38.838,220.642 -34.698,218.572 		"/>
		<path fill="#E35337" d="M-97.626,233.062h-58.788c0,2.07,0,4.554-0.414,6.624l-2.07,40.986l94.806-47.61H-73.2H-97.626z"/>
	</g>
	<g id="XMLID_2_">
		<g>
			<path fill="#C5392D" d="M-34.697,218.571v9.11l-202.03,101.43v-9.11v-0.41L-34.697,218.571z M-35.937,226.851v-5.8l-199.55,99.78
				v5.79L-35.937,226.851z"/>
			<polygon fill="#C5392D" points="-35.937,221.051 -35.937,226.851 -235.487,326.621 -235.487,320.831 			"/>
			<path fill="#C5392D" d="M-236.727,329.111v0.41l-191.27-101.43v-9.93l191.27,101.84V329.111z M-237.557,326.621v-5.79
				l-188.79-100.19v6.21L-237.557,326.621z"/>
			<polygon fill="#C5392D" points="-237.557,320.831 -237.557,326.621 -426.347,226.851 -426.347,220.641 			"/>
		</g>
		<g>
		</g>
	</g>
	<path fill="#F4CB53" d="M-228.864,87.334c-28.566,0-51.75,23.598-51.75,52.164s52.164,81.558,52.164,81.558
		s52.164-52.578,52.164-81.558C-176.7,110.932-199.884,87.334-228.864,87.334z M-228.864,153.988c-12.42,0-22.77-9.936-22.77-22.77
		c0-12.834,9.936-22.77,22.77-22.77c12.42,0,22.77,9.936,22.77,22.77C-206.094,144.052-216.444,153.988-228.864,153.988z"/>
</g>
<text transform="matrix(1 0 0 1 571.8014 58.0972)" fill="#CE6149" font-family="'Oswald-Regular'" font-size="27.3027">EVACU</text>
<text transform="matrix(1 0 0 1 569.0013 119.692)" opacity="0.8" fill="#EFCFC2" font-family="'Oswald-Regular'" font-size="64.0781">ME</text>
</svg>
