<?xml version="1.0" encoding="utf-8"?>
<!-- Generator: Adobe Illustrator 17.0.0, SVG Export Plug-In . SVG Version: 6.00 Build 0)  -->
<!DOCTYPE svg PUBLIC "-//W3C//DTD SVG 1.1//EN" "http://www.w3.org/Graphics/SVG/1.1/DTD/svg11.dtd">
<svg version="1.1" id="Layer_1" xmlns="http://www.w3.org/2000/svg" xmlns:xlink="http://www.w3.org/1999/xlink" x="0px" y="0px"
	 width="180.207px" height="176.115px" viewBox="0 0 180.207 176.115" enable-background="new 0 0 180.207 176.115"
	 xml:space="preserve">
<g>
	<g>
		<path fill="#FFFFFF" stroke="#4F4F4F" stroke-width="0.2" stroke-miterlimit="10" d="M-270.885,35.397h-13.248l51.75,27.324
			l52.578-26.496l1.242-21.528c-2.484,1.242-4.968,2.898-7.452,4.14C-208.785,30.429-239.421,36.639-270.885,35.397z"/>
		
			<rect x="-166.143" y="-113.643" fill="#FFFFFF" stroke="#4F4F4F" stroke-width="0.2" stroke-miterlimit="10" width="0" height="6.21"/>
		<path fill="#FFFFFF" stroke="#4F4F4F" stroke-width="0.2" stroke-miterlimit="10" d="M-279.579-110.745l-144.072,72.45
			l41.4,21.942l119.232-60.03C-270.885-87.975-277.509-100.395-279.579-110.745z"/>
		<path fill="#FFFFFF" stroke="#4F4F4F" stroke-width="0.2" stroke-miterlimit="10" d="M-192.639-66.861
			c-13.662,17.802-27.738,32.706-28.98,33.534l-2.898,2.898l-2.898-2.898c-1.242-1.242-13.662-14.076-26.496-30.636l-111.78,55.89
			l57.546,30.636h38.502c24.426,0.828,48.852-3.726,66.654-12.834c14.904-7.452,24.012-17.388,26.082-27.738l0.414-6.21
			l0.828-12.834C-173.595-47.403-179.805-58.167-192.639-66.861z"/>
		<path fill="#FFFFFF" stroke="#4F4F4F" stroke-width="0.2" stroke-miterlimit="10" d="M-151.239-36.225h58.788l1.656-33.948
			l-72.45-38.502l-7.452,3.726c-2.484,7.866-7.038,16.56-12.42,24.84l2.898,1.656l0,0
			C-159.105-67.689-148.755-52.371-151.239-36.225z"/>
		<polygon fill="#FFFFFF" stroke="#4F4F4F" stroke-width="0.2" stroke-miterlimit="10" points="-66.783,-57.753 -68.025,-36.225 
			-34.491,-36.225 -30.351,-38.295 		"/>
		<path fill="#FFFFFF" stroke="#4F4F4F" stroke-width="0.2" stroke-miterlimit="10" d="M-93.279-23.805h-58.788
			c0,2.07,0,4.554-0.414,6.624l-2.07,40.986l94.806-47.61h-9.108H-93.279z"/>
	</g>
	<g id="XMLID_1_">
		<g>
			<polygon fill="#FFFFFF" points="-232.379,72.244 -232.379,72.654 -423.65,-28.776 -423.65,-38.706 -232.379,63.134 			"/>
			<polygon fill="#FFFFFF" points="-30.349,-38.296 -30.349,-29.186 -232.379,72.244 -232.379,63.134 -232.379,62.724 			"/>
		</g>
		<g>
			<polyline fill="none" stroke="#4F4F4F" stroke-width="0.2" stroke-miterlimit="10" points="-232.379,72.244 -30.349,-29.186 
				-30.349,-38.296 -232.379,62.724 -232.379,63.134 			"/>
			<polygon fill="none" stroke="#4F4F4F" stroke-width="0.2" stroke-miterlimit="10" points="-232.379,63.134 -423.65,-38.706 
				-423.65,-28.776 -232.379,72.654 -232.379,72.244 			"/>
		</g>
	</g>
	<g>
		<path fill="#70C59B" d="M-224.517-169.533c-28.566,0-51.75,23.598-51.75,52.164s52.164,81.558,52.164,81.558
			s52.164-52.578,52.164-81.558C-172.353-145.935-195.537-169.533-224.517-169.533z M-224.517-102.879
			c-12.42,0-22.77-9.936-22.77-22.77s9.936-22.77,22.77-22.77c12.42,0,22.77,9.936,22.77,22.77S-212.097-102.879-224.517-102.879z"
			/>
	</g>
</g>
<g>
	<text transform="matrix(1 0 0 1 10.9297 95.7463)" fill="#70C59B" font-family="'DINCondensed-Bold'" font-size="54.1642">EVACU</text>
</g>
<g>
	
		<text transform="matrix(1 0 0 1 118.2441 95.655)" fill="none" stroke="#70C59B" stroke-width="0.25" stroke-miterlimit="10" font-family="'DINCondensed-Bold'" font-size="52.4716">ME</text>
</g>
<path fill="#70C59B" d="M67.504,434.534c-21.818-11.352-48.707-2.866-60.058,18.951L-20,506.235L6.817,493.34
	c4.024,8.384,10.696,15.582,19.581,20.204c21.817,11.351,48.707,2.866,60.058-18.951C97.807,472.775,89.321,445.885,67.504,434.534z
	 M40.098,487.207c-7.273-3.784-10.1-12.747-6.316-20.02c3.784-7.273,12.746-10.101,20.019-6.317
	c7.273,3.784,10.102,12.747,6.318,20.019S47.37,490.991,40.098,487.207z"/>
<g>
	<g>
		<path fill="#E35337" d="M-275.232,292.264h-13.248l51.75,27.324l52.578-26.496l1.242-21.528c-2.484,1.242-4.968,2.898-7.452,4.14
			C-213.132,287.296-243.768,293.506-275.232,292.264z"/>
		<rect x="-170.49" y="143.224" fill="#E35337" width="0" height="6.21"/>
		<path fill="#E35337" d="M-283.926,146.122l-144.072,72.45l41.4,21.942l119.232-60.03
			C-275.232,168.892-281.856,156.472-283.926,146.122z"/>
		<path fill="#E35337" d="M-196.986,190.006c-13.662,17.802-27.738,32.706-28.98,33.534l-2.898,2.898l-2.898-2.898
			c-1.242-1.242-13.662-14.076-26.496-30.636l-111.78,55.89l57.546,30.636h38.502c24.426,0.828,48.852-3.726,66.654-12.834
			c14.904-7.452,24.012-17.388,26.082-27.738l0.414-6.21l0.828-12.834C-177.942,209.464-184.152,198.7-196.986,190.006z"/>
		<path fill="#E35337" d="M-155.586,220.642h58.788l1.656-33.948l-72.45-38.502l-7.452,3.726c-2.484,7.866-7.038,16.56-12.42,24.84
			l2.898,1.656l0,0C-163.452,189.178-153.102,204.496-155.586,220.642z"/>
		<polygon fill="#E35337" points="-71.13,199.114 -72.372,220.642 -38.838,220.642 -34.698,218.572 		"/>
		<path fill="#E35337" d="M-97.626,233.062h-58.788c0,2.07,0,4.554-0.414,6.624l-2.07,40.986l94.806-47.61H-73.2H-97.626z"/>
	</g>
	<g id="XMLID_2_">
		<g>
			<path fill="#C5392D" d="M-34.697,218.571v9.11l-202.03,101.43v-9.11v-0.41L-34.697,218.571z M-35.937,226.851v-5.8l-199.55,99.78
				v5.79L-35.937,226.851z"/>
			<polygon fill="#C5392D" points="-35.937,221.051 -35.937,226.851 -235.487,326.621 -235.487,320.831 			"/>
			<path fill="#C5392D" d="M-236.727,329.111v0.41l-191.27-101.43v-9.93l191.27,101.84V329.111z M-237.557,326.621v-5.79
				l-188.79-100.19v6.21L-237.557,326.621z"/>
			<polygon fill="#C5392D" points="-237.557,320.831 -237.557,326.621 -426.347,226.851 -426.347,220.641 			"/>
		</g>
		<g>
		</g>
	</g>
	<path fill="#F4CB53" d="M-228.864,87.334c-28.566,0-51.75,23.598-51.75,52.164s52.164,81.558,52.164,81.558
		s52.164-52.578,52.164-81.558C-176.7,110.932-199.884,87.334-228.864,87.334z M-228.864,153.988c-12.42,0-22.77-9.936-22.77-22.77
		c0-12.834,9.936-22.77,22.77-22.77c12.42,0,22.77,9.936,22.77,22.77C-206.094,144.052-216.444,153.988-228.864,153.988z"/>
</g>
<text transform="matrix(1 0 0 1 634.7982 -47.1504)" fill="#CE6149" font-family="'Oswald-Regular'" font-size="27.3027">EVACU</text>
<text transform="matrix(1 0 0 1 631.9982 14.4444)" opacity="0.8" fill="#EFCFC2" font-family="'Oswald-Regular'" font-size="64.0781">ME</text>
<path fill="#C5392D" d="M433.165,29.782c0,6.627-5.373,12-12,12h-122c-6.627,0-12-5.373-12-12v-6c0-6.627,5.373-12,12-12h122
	c6.627,0,12,5.373,12,12V29.782z"/>
<text transform="matrix(1 0 0 1 319.2909 32.615)" fill="#FFFFFF" font-family="'Oswald-Regular'" font-size="12.9356">RECEIVE ALERTS</text>
<path fill="#C5392D" d="M433.165,71.217c0,6.627-5.373,12-12,12h-122c-6.627,0-12-5.373-12-12v-6c0-6.627,5.373-12,12-12h122
	c6.627,0,12,5.373,12,12V71.217z"/>
<path fill="#C5392D" d="M433.165,112.653c0,6.627-5.373,12-12,12h-122c-6.627,0-12-5.373-12-12v-6c0-6.627,5.373-12,12-12h122
	c6.627,0,12,5.373,12,12V112.653z"/>
<text transform="matrix(1 0 0 1 296.5315 114.7122)" fill="#FFFFFF" font-family="'Oswald-Regular'" font-size="10.4339">LOCATE YOUR FAMILY MEMBERS</text>
<path fill="#C5392D" d="M433.165,154.088c0,6.627-5.373,12-12,12h-122c-6.627,0-12-5.373-12-12v-6c0-6.627,5.373-12,12-12h122
	c6.627,0,12,5.373,12,12V154.088z"/>
<text transform="matrix(1 0 0 1 312.9701 157.2508)" fill="#FFFFFF" font-family="'Oswald-Regular'" font-size="14">ARRIVAL REPORT</text>
<text transform="matrix(1 0 0 1 295.4125 72.0292)" fill="#FFFFFF" font-family="'Oswald-Regular'" font-size="9.2923">MESSAGE WITH SECURE ROUTE OUT</text>
</svg>
